<svg xmlns="http://www.w3.org/2000/svg" viewBox="0 0 100 100">
  <path d="M84.99848 14.80054Q70.4658.26786 49.87784.26786q-20.64851 0-35.18119 14.53268T.16397 49.98173q0 20.58796 14.53268 35.12064t35.18119 14.53268q20.58796 0 35.12064-14.53268t14.53268-35.12064q0-20.64851-14.53268-35.18119m-29.06536 6.47915L66.106 38.84001h.12111l18.89248 32.63798q.48442.42387.48442 1.93769v.30276q0 .12111-.06055.42387-.12111.30276-.54498.54498l-1.08995.30276-69.33299.12111-.90829-.12111q-.54498-.30276-.66608-.54498-.36332-.24221-.30276-.66608 0-.18166.18166-.66608.18166-.54498.24221-.60553.36332-.60553 1.81658-3.45151 1.39272-2.96709 2.96709-5.3892l29.67089-51.3488q1.0294-1.21106 2.30101-.48442.54498.24221.66608.54498 1.81658 1.99824 5.3892 8.90127m2.48267 38.14828q-4.48091 8.78016-7.02413 12.35278l29.42868-.18166-15.13821-26.03772-7.26634 13.8666M17.78485 71.5991q2.78543-.24221 7.08468 0l22.94952.24221-9.38569-15.92539q-3.33041-5.81307-5.93418-10.05177L17.78484 71.5991m45.77794-29.67089L49.09065 16.98044 34.86074 41.98876q.30276.66608 2.36156 4.29925 1.99824 3.33041 3.45151 6.35805l8.90127 15.38042q1.51382-3.2093 4.84423-8.71961l9.14348-17.37866z"/>
</svg>
