<svg xmlns="http://www.w3.org/2000/svg" fill="#b591bb" viewBox="0 0 100 100">
  <path d="M99.82451 91.45555v-.41401q0-2.07007-.66242-2.64969l-25.83453-44.6308h-.16561l-13.9109-24.01286q-4.88538-9.43954-7.36946-12.17204-.16561-.41401-.91083-.74523-1.73886-.99364-3.14651.66242L7.2508 77.71026q-2.15288 3.31212-4.05735 7.36946-1.98727 3.89174-2.48409 4.71977-.0828.0828-.33121.82803-.24841.66242-.24841.91083-.0828.57962.41401.91083.16561.33121.91083.74523l1.24204.16561 94.8094-.16561 1.49045-.41401q.57962-.33121.74523-.74523.0828-.41401.0828-.57962M49.89431 13.86917l19.78991 34.11482-12.50325 23.76445q-4.55416 7.53507-6.62424 11.92363L38.38469 62.64012q-1.98727-4.14015-4.71977-8.69431-2.8153-4.96818-3.22932-5.87901l19.4587-34.19763M16.77311 88.55745q-5.87901-.33121-9.68795 0l20.12112-35.19126q3.56053 5.79621 8.11469 13.74529l12.83446 21.77718-31.38233-.33121m55.8092-35.60528l20.70074 35.60528-40.24224.24841q3.47772-4.88538 9.60514-16.89181l9.93636-18.96188z"/>
</svg>
